<!-- Gear - Engranaje industrial -->
<svg xmlns="http://www.w3.org/2000/svg" viewBox="0 0 64 64" width="32" height="32">
  <!-- Gear teeth -->
  <path d="M 32 8 L 36 12 L 36 16 L 32 18 L 28 16 L 28 12 Z
           M 44 12 L 48 16 L 46 20 L 42 20 L 40 16 L 42 12 Z
           M 52 24 L 56 28 L 54 32 L 50 32 L 48 28 L 50 24 Z
           M 52 40 L 56 36 L 54 32 L 50 32 L 48 36 L 50 40 Z
           M 44 52 L 48 48 L 46 44 L 42 44 L 40 48 L 42 52 Z
           M 32 56 L 36 52 L 36 48 L 32 46 L 28 48 L 28 52 Z
           M 20 52 L 16 48 L 18 44 L 22 44 L 24 48 L 22 52 Z
           M 12 40 L 8 36 L 10 32 L 14 32 L 16 36 L 14 40 Z
           M 12 24 L 8 28 L 10 32 L 14 32 L 16 28 L 14 24 Z
           M 20 12 L 16 16 L 18 20 L 22 20 L 24 16 L 22 12 Z"
        fill="#555" stroke="#333" stroke-width="1"/>

  <!-- Gear body -->
  <circle cx="32" cy="32" r="14"
          fill="#666" stroke="#444" stroke-width="2"/>
  <circle cx="32" cy="32" r="11"
          fill="#777" stroke="#555" stroke-width="1"/>

  <!-- Center hole -->
  <circle cx="32" cy="32" r="6"
          fill="#222" stroke="#111" stroke-width="1.5"/>
  <circle cx="32" cy="32" r="4"
          fill="#1a1a1a"/>

  <!-- Rust spots -->
  <circle cx="24" cy="26" r="2" fill="#8B4513" opacity="0.6"/>
  <circle cx="38" cy="35" r="1.5" fill="#A0522D" opacity="0.5"/>
  <circle cx="30" cy="40" r="1.8" fill="#6B4423" opacity="0.7"/>

  <!-- Shine highlight -->
  <path d="M 28 24 Q 32 26, 36 24"
        stroke="#999" stroke-width="1" fill="none" opacity="0.4"/>
</svg>
